<?xml version="1.0" standalone="yes"?>
<svg xmlns="http://www.w3.org/2000/svg" width="100" height="100">
<path style="fill:#010101; stroke:none;" d="M0 0L0 21C5.88802 19.3454 18.0379 14.8735 23.8958 17.314C37.611 23.0281 37.2722 51.0053 50.3789 57.8789C56.1966 60.9299 71.6899 53.3059 78 52C76.5812 47.721 69.8603 41.6164 70.7299 37.1443C71.3111 34.156 75.591 33.4073 78 32.7106C89.4903 29.3876 93.7515 37.7863 99 47L100 47L100 0L0 0z"/>
<path style="fill:#f0e0e3; stroke:none;" d="M22 16L23 17L22 16z"/>
<path style="fill:#f0acb2; stroke:none;" d="M23 16L24 17L23 16z"/>
<path style="fill:#f0e0e3; stroke:none;" d="M24 16L25 17L24 16M16.6667 17.3333L17.3333 17.6667L16.6667 17.3333z"/>
<path style="fill:#f0acb2; stroke:none;" d="M18.6667 17.3333L19.3333 17.6667L18.6667 17.3333z"/>
<path style="fill:#ee737d; stroke:none;" d="M20 17L21 18L20 17z"/>
<path style="fill:#ec3644; stroke:none;" d="M0 22L17.7531 57L26.1049 69.3063L47.4707 65.5424L60.6096 84.9321L71 83.1921L97 74L86 54C89.2614 53.0745 96.151 52.4173 98.1721 49.4367C100.761 45.6194 90.547 32.866 86.8264 31.777C82.2417 30.435 74.193 34.1955 70 36L79 52L49 60C45.7237 48.8618 37.3082 37.9758 31.3966 28C29.5734 24.9234 27.4199 18.971 23.787 17.6929C18.0955 15.6905 5.48852 19.9409 0 22z"/>
<path style="fill:#f0acb2; stroke:none;" d="M25 17L26 18L25 17z"/>
<path style="fill:#f0e0e3; stroke:none;" d="M11.6667 18.3333L12.3333 18.6667L11.6667 18.3333z"/>
<path style="fill:#f0acb2; stroke:none;" d="M13 18L14 19L13 18z"/>
<path style="fill:#ee737d; stroke:none;" d="M14.6667 18.3333L15.3333 18.6667L14.6667 18.3333z"/>
<path style="fill:#f0e0e3; stroke:none;" d="M26 18L27 19L26 18M5.66667 19.3333L6.33333 19.6667L5.66667 19.3333z"/>
<path style="fill:#f0acb2; stroke:none;" d="M7.66667 19.3333L8.33333 19.6667L7.66667 19.3333z"/>
<path style="fill:#ee737d; stroke:none;" d="M9 19L10 20L9 19M26 19L27 20L26 19z"/>
<path style="fill:#f0e0e3; stroke:none;" d="M1 20L2 21L1 20z"/>
<path style="fill:#f0acb2; stroke:none;" d="M2 20L3 21L2 20z"/>
<path style="fill:#ee737d; stroke:none;" d="M3.66667 20.3333L4.33333 20.6667L3.66667 20.3333z"/>
<path style="fill:#f0e0e3; stroke:none;" d="M27 20L28 21L27 20z"/>
<path style="fill:#f0acb2; stroke:none;" d="M0 21L1 22L0 21z"/>
<path style="fill:#ee737d; stroke:none;" d="M18.6667 21.3333L19.3333 21.6667L18.6667 21.3333z"/>
<path style="fill:#f0acb2; stroke:none;" d="M20.6667 21.3333L21.3333 21.6667L20.6667 21.3333z"/>
<path style="fill:#f0e0e3; stroke:none;" d="M22 21L24 25L25 25L22 21z"/>
<path style="fill:#ee737d; stroke:none;" d="M23 21L24 22L23 21M27 21L28 22L27 21M13.6667 22.3333L14.3333 22.6667L13.6667 22.3333z"/>
<path style="fill:#f0acb2; stroke:none;" d="M15 22L16 23L15 22z"/>
<path style="fill:#f0e0e3; stroke:none;" d="M6 26L20 23C16.0709 21.5914 8.73821 22.7453 6 26z"/>
<path style="fill:#010101; stroke:none;" d="M7 25L21.2438 54L28.213 64.3032L44 61L23 22L7 25z"/>
<path style="fill:#f0acb2; stroke:none;" d="M28 22L29 23L28 22z"/>
<path style="fill:#ee737d; stroke:none;" d="M0 23L1 24L0 23M7.66667 23.3333L8.33333 23.6667L7.66667 23.3333z"/>
<path style="fill:#f0acb2; stroke:none;" d="M9.66667 23.3333L10.3333 23.6667L9.66667 23.3333z"/>
<path style="fill:#ee737d; stroke:none;" d="M24 23L25 24L24 23M28 23L29 24L28 23z"/>
<path style="fill:#f0e0e3; stroke:none;" d="M29 23L30 24L29 23z"/>
<path style="fill:#f0acb2; stroke:none;" d="M0 24L1 25L0 24M5 24L6 25L5 24M29 24L30 25L29 24z"/>
<path style="fill:#f0e0e3; stroke:none;" d="M0 25L1 26L0 25z"/>
<path style="fill:#ee737d; stroke:none;" d="M1 25L2 26L1 25M5 25L6 26L5 25z"/>
<path style="fill:#f0acb2; stroke:none;" d="M25 25L26 26L25 25z"/>
<path style="fill:#f0e0e3; stroke:none;" d="M30 25L31 26L30 25z"/>
<path style="fill:#010101; stroke:none;" d="M0 26L0 100L100 100L100 50L87 54C89.5109 58.5101 97.496 66.4453 96.8974 71.7863C96.5599 74.7968 92.3199 75.8087 90 76.6806C83.9633 78.9491 67.2664 88.2828 61.2099 85.7623C55.3533 83.3251 51.1126 70.2779 48 65L26.213 70.2122L17.7809 58L0 26z"/>
<path style="fill:#f0acb2; stroke:none;" d="M1 26L2 27L1 26M6 26L7 27L6 26z"/>
<path style="fill:#f0e0e3; stroke:none;" d="M25 26L26 27L25 26z"/>
<path style="fill:#ee737d; stroke:none;" d="M26 26L27 27L26 26M30 26L31 27L30 26M2 27L3 28L2 27M6 27L7 28L6 27z"/>
<path style="fill:#f0acb2; stroke:none;" d="M26 27L27 28L26 27z"/>
<path style="fill:#f0e0e3; stroke:none;" d="M31 27L32 28L31 27M2 28L3 29L2 28z"/>
<path style="fill:#f0acb2; stroke:none;" d="M7 28L8 29L7 28z"/>
<path style="fill:#ee737d; stroke:none;" d="M27 28L28 29L27 28M31 28L32 29L31 28M3 29L4 30L3 29M7 29L8 30L7 29z"/>
<path style="fill:#f0e0e3; stroke:none;" d="M8 29L9 30L8 29M27 29L28 30L27 29z"/>
<path style="fill:#f0acb2; stroke:none;" d="M32 29L33 30L32 29z"/>
<path style="fill:#f0e0e3; stroke:none;" d="M3 30L4 31L3 30z"/>
<path style="fill:#f0acb2; stroke:none;" d="M8 30L9 31L8 30z"/>
<path style="fill:#ee737d; stroke:none;" d="M28 30L29 31L28 30M4 31L5 32L4 31M8 31L9 32L8 31z"/>
<path style="fill:#f0e0e3; stroke:none;" d="M9 31L10 32L9 31M28 31L29 32L28 31z"/>
<path style="fill:#ee737d; stroke:none;" d="M33 31L34 32L33 31z"/>
<path style="fill:#f0e0e3; stroke:none;" d="M82 31L83 32L82 31z"/>
<path style="fill:#f0acb2; stroke:none;" d="M83 31L84 32L83 31z"/>
<path style="fill:#ee737d; stroke:none;" d="M84 31L85 32L84 31z"/>
<path style="fill:#f0acb2; stroke:none;" d="M88 31L89 32L88 31z"/>
<path style="fill:#f0e0e3; stroke:none;" d="M4 32L5 33L4 32z"/>
<path style="fill:#f0acb2; stroke:none;" d="M9 32L10 33L9 32M29 32L30 33L29 32z"/>
<path style="fill:#f0e0e3; stroke:none;" d="M34 32L35 33L34 32M78 32L79 33L78 32z"/>
<path style="fill:#f0acb2; stroke:none;" d="M79 32L80 33L79 32z"/>
<path style="fill:#ee737d; stroke:none;" d="M80 32L81 33L80 32z"/>
<path style="fill:#f0e0e3; stroke:none;" d="M89 32L90 33L89 32z"/>
<path style="fill:#ee737d; stroke:none;" d="M5 33L6 34L5 33z"/>
<path style="fill:#f0e0e3; stroke:none;" d="M10 33L11 34L10 33z"/>
<path style="fill:#ee737d; stroke:none;" d="M30 33L31 34L30 33M34 33L35 34L34 33z"/>
<path style="fill:#f0e0e3; stroke:none;" d="M75 33L76 34L75 33z"/>
<path style="fill:#f0acb2; stroke:none;" d="M76 33L77 34L76 33z"/>
<path style="fill:#ee737d; stroke:none;" d="M77 33L78 34L77 33M89 33L90 34L89 33z"/>
<path style="fill:#f0e0e3; stroke:none;" d="M5 34L6 35L5 34z"/>
<path style="fill:#f0acb2; stroke:none;" d="M10 34L11 35L10 34M30 34L31 35L30 34M35 34L36 35L35 34z"/>
<path style="fill:#f0e0e3; stroke:none;" d="M71 34L72 35L71 34z"/>
<path style="fill:#f0acb2; stroke:none;" d="M72 34L73 35L72 34z"/>
<path style="fill:#ee737d; stroke:none;" d="M73 34L74 35L73 34z"/>
<path style="fill:#f0acb2; stroke:none;" d="M90 34L91 35L90 34z"/>
<path style="fill:#ee737d; stroke:none;" d="M6 35L7 36L6 35z"/>
<path style="fill:#f0e0e3; stroke:none;" d="M11 35L12 36L11 35z"/>
<path style="fill:#ee737d; stroke:none;" d="M31 35L32 36L31 35M35 35L36 36L35 35M70 35L71 36L70 35M84 35L85 36L84 35z"/>
<path style="fill:#f0acb2; stroke:none;" d="M85 35L86 36L85 35z"/>
<path style="fill:#ee737d; stroke:none;" d="M86 35L87 36L86 35z"/>
<path style="fill:#f0e0e3; stroke:none;" d="M91 35L92 36L91 35M6 36L7 37L6 36z"/>
<path style="fill:#ee737d; stroke:none;" d="M11 36L12 37L11 36z"/>
<path style="fill:#f0e0e3; stroke:none;" d="M31 36L32 37L31 36z"/>
<path style="fill:#f0acb2; stroke:none;" d="M36 36L37 37L36 36z"/>
<path style="fill:#f0e0e3; stroke:none;" d="M69.3333 36.6667L69.6667 37.3333L69.3333 36.6667z"/>
<path style="fill:#ee737d; stroke:none;" d="M80 36L81 37L80 36z"/>
<path style="fill:#f0acb2; stroke:none;" d="M81 36L82 37L81 36z"/>
<path style="fill:#f0e0e3; stroke:none;" d="M82 36L82 37L89 40L82 36z"/>
<path style="fill:#ee737d; stroke:none;" d="M7 37L8 38L7 37z"/>
<path style="fill:#f0e0e3; stroke:none;" d="M12 37L13 38L12 37z"/>
<path style="fill:#ee737d; stroke:none;" d="M32 37L33 38L32 37z"/>
<path style="fill:#f0e0e3; stroke:none;" d="M37 37L38 38L37 37z"/>
<path style="fill:#ee737d; stroke:none;" d="M76 37L75 39L76 37z"/>
<path style="fill:#f0acb2; stroke:none;" d="M77 37L78 38L77 37z"/>
<path style="fill:#f0e0e3; stroke:none;" d="M76 38L80 45L81 45L81 38L76 38z"/>
<path style="fill:#010101; stroke:none;" d="M78 38C80.4259 46.4048 84.3315 50.6573 93 47C89.6282 39.9145 85.9281 36.5561 78 38z"/>
<path style="fill:#f0acb2; stroke:none;" d="M87 37L88 38L87 37z"/>
<path style="fill:#ee737d; stroke:none;" d="M92 37L93 38L92 37z"/>
<path style="fill:#f0e0e3; stroke:none;" d="M7 38L8 39L7 38z"/>
<path style="fill:#ee737d; stroke:none;" d="M12 38L13 39L12 38z"/>
<path style="fill:#f0e0e3; stroke:none;" d="M32 38L33 39L32 38z"/>
<path style="fill:#ee737d; stroke:none;" d="M37 38L38 39L37 38M70 38L71 39L70 38M88 38L89 39L88 38z"/>
<path style="fill:#f0acb2; stroke:none;" d="M93 38L94 39L93 38M8 39L9 40L8 39z"/>
<path style="fill:#f0e0e3; stroke:none;" d="M13 39L14 40L13 39z"/>
<path style="fill:#f0acb2; stroke:none;" d="M33 39L34 40L33 39z"/>
<path style="fill:#f0e0e3; stroke:none;" d="M38 39L39 40L38 39M70 39L71 40L70 39z"/>
<path style="fill:#f0acb2; stroke:none;" d="M76 39L77 40L76 39z"/>
<path style="fill:#f0e0e3; stroke:none;" d="M8 40L9 41L8 40z"/>
<path style="fill:#ee737d; stroke:none;" d="M13 40L14 41L13 40M34 40L35 41L34 40M38 40L39 41L38 40z"/>
<path style="fill:#f0e0e3; stroke:none;" d="M71 40L72 41L71 40z"/>
<path style="fill:#f0acb2; stroke:none;" d="M89 40L90 41L89 40z"/>
<path style="fill:#ee737d; stroke:none;" d="M94 40L95 41L94 40z"/>
<path style="fill:#f0acb2; stroke:none;" d="M9 41L10 42L9 41z"/>
<path style="fill:#f0e0e3; stroke:none;" d="M14 41L15 42L14 41z"/>
<path style="fill:#f0acb2; stroke:none;" d="M34 41L35 42L34 41M39 41L40 42L39 41z"/>
<path style="fill:#ee737d; stroke:none;" d="M72 41L73 42L72 41M77 41L78 42L77 41M90 41L91 42L90 41z"/>
<path style="fill:#f0acb2; stroke:none;" d="M95 41L96 42L95 41z"/>
<path style="fill:#ee737d; stroke:none;" d="M14 42L15 43L14 42M35 42L36 43L35 42z"/>
<path style="fill:#f0e0e3; stroke:none;" d="M72 42L73 43L72 42z"/>
<path style="fill:#f0acb2; stroke:none;" d="M78 42L79 43L78 42z"/>
<path style="fill:#f0e0e3; stroke:none;" d="M90 42L91 43L90 42M96 42L97 43L96 42z"/>
<path style="fill:#f0acb2; stroke:none;" d="M10 43L11 44L10 43M15 43L16 44L15 43z"/>
<path style="fill:#f0e0e3; stroke:none;" d="M35 43L36 44L35 43z"/>
<path style="fill:#f0acb2; stroke:none;" d="M40 43L41 44L40 43z"/>
<path style="fill:#f0e0e3; stroke:none;" d="M73 43L74 44L73 43z"/>
<path style="fill:#f0acb2; stroke:none;" d="M91 43L92 44L91 43z"/>
<path style="fill:#ee737d; stroke:none;" d="M11 44L12 45L11 44M15 44L16 45L15 44M36 44L37 45L36 44z"/>
<path style="fill:#f0e0e3; stroke:none;" d="M41 44L42 45L41 44z"/>
<path style="fill:#f0acb2; stroke:none;" d="M74 44L75 45L74 44z"/>
<path style="fill:#ee737d; stroke:none;" d="M79 44L80 45L79 44M92 44L93 45L92 44z"/>
<path style="fill:#f0acb2; stroke:none;" d="M97 44L98 45L97 44M11 45L12 46L11 45M16 45L17 46L16 45z"/>
<path style="fill:#f0e0e3; stroke:none;" d="M36 45L37 46L36 45z"/>
<path style="fill:#ee737d; stroke:none;" d="M41 45L42 46L41 45z"/>
<path style="fill:#f0e0e3; stroke:none;" d="M74 45L76 47L74 45z"/>
<path style="fill:#ee737d; stroke:none;" d="M75 45L76 46L75 45z"/>
<path style="fill:#f0acb2; stroke:none;" d="M80 45L81 46L80 45z"/>
<path style="fill:#f0e0e3; stroke:none;" d="M92 45L93 46L92 45M98 45L99 46L98 45z"/>
<path style="fill:#ee737d; stroke:none;" d="M12 46L13 47L12 46M16 46L17 47L16 46z"/>
<path style="fill:#f0acb2; stroke:none;" d="M37 46L38 47L37 46M42 46L43 47L42 46z"/>
<path style="fill:#f0e0e3; stroke:none;" d="M81 46L83 48L81 46M93 46L92 48L93 46z"/>
<path style="fill:#f0acb2; stroke:none;" d="M12 47L13 48L12 47M17 47L18 48L17 47z"/>
<path style="fill:#ee737d; stroke:none;" d="M38 47L39 48L38 47M42 47L43 48L42 47z"/>
<path style="fill:#f0acb2; stroke:none;" d="M76 47L77 48L76 47z"/>
<path style="fill:#ee737d; stroke:none;" d="M81 47L82 48L81 47z"/>
<path style="fill:#f0acb2; stroke:none;" d="M93 47L94 48L93 47z"/>
<path style="fill:#ee737d; stroke:none;" d="M94 47L95 48L94 47M99 47L100 48L99 47M13 48L14 49L13 48M17 48L18 49L17 48z"/>
<path style="fill:#f0e0e3; stroke:none;" d="M18 48L19 49L18 48z"/>
<path style="fill:#f0acb2; stroke:none;" d="M38 48L39 49L38 48M43 48L44 49L43 48z"/>
<path style="fill:#ee737d; stroke:none;" d="M77 48L78 49L77 48z"/>
<path style="fill:#f0acb2; stroke:none;" d="M82 48L83 49L82 48z"/>
<path style="fill:#f0e0e3; stroke:none;" d="M89 48L90 49L89 48z"/>
<path style="fill:#f0acb2; stroke:none;" d="M90 48L91 49L90 48z"/>
<path style="fill:#ee737d; stroke:none;" d="M91 48L92 49L91 48z"/>
<path style="fill:#f0acb2; stroke:none;" d="M13 49L14 50L13 49M18 49L19 50L18 49z"/>
<path style="fill:#ee737d; stroke:none;" d="M39 49L40 50L39 49z"/>
<path style="fill:#f0e0e3; stroke:none;" d="M44 49L45 50L44 49M77 49L78 50L77 49M83 49L83 50L86 50L83 49z"/>
<path style="fill:#f0acb2; stroke:none;" d="M86 49L87 50L86 49z"/>
<path style="fill:#ee737d; stroke:none;" d="M87 49L88 50L87 49M99 49L100 50L99 49M14 50L15 51L14 50M18 50L19 51L18 50z"/>
<path style="fill:#f0e0e3; stroke:none;" d="M19 50L20 51L19 50M39 50L40 51L39 50z"/>
<path style="fill:#ee737d; stroke:none;" d="M44 50L45 51L44 50z"/>
<path style="fill:#f0acb2; stroke:none;" d="M78 50L79 51L78 50z"/>
<path style="fill:#ee737d; stroke:none;" d="M98 50L99 51L98 50z"/>
<path style="fill:#f0e0e3; stroke:none;" d="M14 51L15 52L14 51z"/>
<path style="fill:#f0acb2; stroke:none;" d="M19 51L20 52L19 51z"/>
<path style="fill:#ee737d; stroke:none;" d="M40 51L41 52L40 51z"/>
<path style="fill:#f0e0e3; stroke:none;" d="M45 51L46 52L45 51M78 51L79 52L78 51z"/>
<path style="fill:#ee737d; stroke:none;" d="M94 51L95 52L94 51z"/>
<path style="fill:#f0acb2; stroke:none;" d="M95 51L96 52L95 51z"/>
<path style="fill:#f0e0e3; stroke:none;" d="M96 51L97 52L96 51z"/>
<path style="fill:#ee737d; stroke:none;" d="M15 52L16 53L15 52z"/>
<path style="fill:#f0e0e3; stroke:none;" d="M20 52L21 53L20 52M40 52L41 53L40 52z"/>
<path style="fill:#ee737d; stroke:none;" d="M45 52L46 53L45 52z"/>
<path style="fill:#f0e0e3; stroke:none;" d="M75 52L76 53L75 52z"/>
<path style="fill:#f0acb2; stroke:none;" d="M76 52L77 53L76 52z"/>
<path style="fill:#ee737d; stroke:none;" d="M77 52L78 53L77 52M91 52L92 53L91 52z"/>
<path style="fill:#f0acb2; stroke:none;" d="M92 52L93 53L92 52z"/>
<path style="fill:#f0e0e3; stroke:none;" d="M93 52L94 53L93 52M15 53L16 54L15 53z"/>
<path style="fill:#f0acb2; stroke:none;" d="M20 53L21 54L20 53M41 53L42 54L41 53M46 53L47 54L46 53z"/>
<path style="fill:#f0e0e3; stroke:none;" d="M71 53L72 54L71 53z"/>
<path style="fill:#f0acb2; stroke:none;" d="M72 53L73 54L72 53z"/>
<path style="fill:#ee737d; stroke:none;" d="M73 53L74 54L73 53M87 53L88 54L87 53z"/>
<path style="fill:#f0acb2; stroke:none;" d="M88 53L89 54L88 53z"/>
<path style="fill:#f0e0e3; stroke:none;" d="M89 53L90 54L89 53z"/>
<path style="fill:#ee737d; stroke:none;" d="M16 54L17 55L16 54z"/>
<path style="fill:#f0e0e3; stroke:none;" d="M21 54L22 55L21 54z"/>
<path style="fill:#ee737d; stroke:none;" d="M42 54L43 55L42 54z"/>
<path style="fill:#f0e0e3; stroke:none;" d="M47 54L48 55L47 54M68 54L69 55L68 54z"/>
<path style="fill:#ee737d; stroke:none;" d="M69 54L70 55L69 54z"/>
<path style="fill:#f0acb2; stroke:none;" d="M86 54L87 55L86 54z"/>
<path style="fill:#f0e0e3; stroke:none;" d="M16 55L17 56L16 55z"/>
<path style="fill:#ee737d; stroke:none;" d="M21 55L22 56L21 55z"/>
<path style="fill:#f0acb2; stroke:none;" d="M42 55L43 56L42 55M47 55L48 56L47 55z"/>
<path style="fill:#f0e0e3; stroke:none;" d="M64 55L65 56L64 55z"/>
<path style="fill:#f0acb2; stroke:none;" d="M65 55L66 56L65 55z"/>
<path style="fill:#ee737d; stroke:none;" d="M66 55L67 56L66 55M80 55L81 56L80 55z"/>
<path style="fill:#f0acb2; stroke:none;" d="M81 55L83 57L81 55z"/>
<path style="fill:#f0e0e3; stroke:none;" d="M87 55L89 57L87 55z"/>
<path style="fill:#ee737d; stroke:none;" d="M17 56L18 57L17 56z"/>
<path style="fill:#f0e0e3; stroke:none;" d="M22 56L23 57L22 56z"/>
<path style="fill:#ee737d; stroke:none;" d="M43 56L44 57L43 56z"/>
<path style="fill:#f0e0e3; stroke:none;" d="M48 56L49 57L48 56M60 56L61 57L60 56z"/>
<path style="fill:#f0acb2; stroke:none;" d="M61 56L62 57L61 56z"/>
<path style="fill:#ee737d; stroke:none;" d="M62 56L63 57L62 56M76.6667 56.3333L77.3333 56.6667L76.6667 56.3333z"/>
<path style="fill:#f0acb2; stroke:none;" d="M78 56L79 57L78 56z"/>
<path style="fill:#f0e0e3; stroke:none;" d="M79 56L79 57L90 71L86 72L86 73L92 71C88.9236 65.4741 85.3732 57.8745 79 56z"/>
<path style="fill:#ee737d; stroke:none;" d="M87 56L88 57L87 56z"/>
<path style="fill:#f0e0e3; stroke:none;" d="M17 57L18 58L17 57z"/>
<path style="fill:#ee737d; stroke:none;" d="M22 57L23 58L22 57z"/>
<path style="fill:#f0e0e3; stroke:none;" d="M43 57L44 61L45 61L43 57z"/>
<path style="fill:#ee737d; stroke:none;" d="M48 57L49 58L48 57z"/>
<path style="fill:#f0e0e3; stroke:none;" d="M56.6667 57.3333L57.3333 57.6667L56.6667 57.3333z"/>
<path style="fill:#f0acb2; stroke:none;" d="M58 57L59 58L58 57z"/>
<path style="fill:#ee737d; stroke:none;" d="M59 57L60 58L59 57M73 57L74 58L73 57z"/>
<path style="fill:#f0acb2; stroke:none;" d="M74 57L75 58L74 57z"/>
<path style="fill:#f0e0e3; stroke:none;" d="M75.6667 57.3333L76.3333 57.6667L75.6667 57.3333z"/>
<path style="fill:#010101; stroke:none;" d="M54 64C55.2912 68.4822 58.5345 78.567 63.3789 80.3032C69.7942 82.6026 83.9865 73.4671 90 71C83.4853 50.5556 69.2922 60.4622 54 64z"/>
<path style="fill:#ee737d; stroke:none;" d="M83 57L84 58L83 57z"/>
<path style="fill:#f0acb2; stroke:none;" d="M88 57L89 58L88 57z"/>
<path style="fill:#ee737d; stroke:none;" d="M18 58L19 59L18 58z"/>
<path style="fill:#f0e0e3; stroke:none;" d="M23 58L24 59L23 58z"/>
<path style="fill:#ee737d; stroke:none;" d="M44 58L45 59L44 58z"/>
<path style="fill:#f0e0e3; stroke:none;" d="M49 58L50 59L49 58M53 58L54 59L53 58z"/>
<path style="fill:#f0acb2; stroke:none;" d="M54 58L55 59L54 58z"/>
<path style="fill:#ee737d; stroke:none;" d="M55 58L56 59L55 58M69 58L70 59L69 58z"/>
<path style="fill:#f0acb2; stroke:none;" d="M70 58L71 59L70 58z"/>
<path style="fill:#f0e0e3; stroke:none;" d="M71 58L71 59L74 59L71 58M89 58L90 59L89 58M18 59L19 60L18 59z"/>
<path style="fill:#ee737d; stroke:none;" d="M23 59L24 60L23 59M49 59L50 60L49 59z"/>
<path style="fill:#f0acb2; stroke:none;" d="M50 59L51 60L50 59z"/>
<path style="fill:#ee737d; stroke:none;" d="M51 59L52 60L51 59M65.6667 59.3333L66.3333 59.6667L65.6667 59.3333z"/>
<path style="fill:#f0acb2; stroke:none;" d="M67 59L68 60L67 59z"/>
<path style="fill:#f0e0e3; stroke:none;" d="M68 59L69 60L68 59z"/>
<path style="fill:#f0acb2; stroke:none;" d="M84 59L85 60L84 59z"/>
<path style="fill:#f0e0e3; stroke:none;" d="M90 59L91 60L90 59z"/>
<path style="fill:#ee737d; stroke:none;" d="M19 60L20 61L19 60z"/>
<path style="fill:#f0e0e3; stroke:none;" d="M24 60L25 61L24 60z"/>
<path style="fill:#f0acb2; stroke:none;" d="M45 60L46 61L45 60z"/>
<path style="fill:#ee737d; stroke:none;" d="M62 60L63 61L62 60z"/>
<path style="fill:#f0acb2; stroke:none;" d="M63 60L64 61L63 60z"/>
<path style="fill:#f0e0e3; stroke:none;" d="M64.6667 60.3333L65.3333 60.6667L64.6667 60.3333z"/>
<path style="fill:#ee737d; stroke:none;" d="M85 60L86 61L85 60z"/>
<path style="fill:#f0acb2; stroke:none;" d="M90 60L91 61L90 60z"/>
<path style="fill:#f0e0e3; stroke:none;" d="M19 61L20 62L19 61z"/>
<path style="fill:#ee737d; stroke:none;" d="M24 61L25 62L24 61z"/>
<path style="fill:#f0e0e3; stroke:none;" d="M41.6667 61.3333L42.3333 61.6667L41.6667 61.3333z"/>
<path style="fill:#f0acb2; stroke:none;" d="M43 61L44 62L43 61z"/>
<path style="fill:#ee737d; stroke:none;" d="M44 61L45 62L44 61M58.6667 61.3333L59.3333 61.6667L58.6667 61.3333z"/>
<path style="fill:#f0acb2; stroke:none;" d="M60 61L61 62L60 61z"/>
<path style="fill:#f0e0e3; stroke:none;" d="M61.6667 61.3333L62.3333 61.6667L61.6667 61.3333M91 61L92 62L91 61z"/>
<path style="fill:#f0acb2; stroke:none;" d="M20 62L21 63L20 62M25 62L26 63L25 62z"/>
<path style="fill:#f0e0e3; stroke:none;" d="M38 62L39 63L38 62z"/>
<path style="fill:#f0acb2; stroke:none;" d="M39 62L40 63L39 62z"/>
<path style="fill:#ee737d; stroke:none;" d="M40 62L41 63L40 62M55 62L56 63L55 62z"/>
<path style="fill:#f0acb2; stroke:none;" d="M56 62L57 63L56 62z"/>
<path style="fill:#f0e0e3; stroke:none;" d="M57 62L57 63L60 63L57 62z"/>
<path style="fill:#f0acb2; stroke:none;" d="M86 62L87 63L86 62z"/>
<path style="fill:#f0e0e3; stroke:none;" d="M92 62L93 63L92 62z"/>
<path style="fill:#ee737d; stroke:none;" d="M25 63L26 64L25 63z"/>
<path style="fill:#f0e0e3; stroke:none;" d="M34 63L35 64L34 63z"/>
<path style="fill:#f0acb2; stroke:none;" d="M35 63L36 64L35 63z"/>
<path style="fill:#ee737d; stroke:none;" d="M36 63L37 64L36 63M52.3333 63.6667L52.6667 64.3333L52.3333 63.6667z"/>
<path style="fill:#f0e0e3; stroke:none;" d="M53 65L57 64L53 65z"/>
<path style="fill:#ee737d; stroke:none;" d="M87 63L88 64L87 63M92 63L93 64L92 63z"/>
<path style="fill:#f0acb2; stroke:none;" d="M21 64L22 65L21 64M26 64L27 65L26 64z"/>
<path style="fill:#f0e0e3; stroke:none;" d="M31 64L32 65L31 64z"/>
<path style="fill:#f0acb2; stroke:none;" d="M32 64L33 65L32 64z"/>
<path style="fill:#ee737d; stroke:none;" d="M33 64L34 65L33 64M47 64L48 65L47 64z"/>
<path style="fill:#f0e0e3; stroke:none;" d="M93 64L94 65L93 64z"/>
<path style="fill:#ee737d; stroke:none;" d="M26 65L27 66L26 65z"/>
<path style="fill:#f0e0e3; stroke:none;" d="M27 65L28 66L27 65z"/>
<path style="fill:#f0acb2; stroke:none;" d="M28 65L29 66L28 65z"/>
<path style="fill:#ee737d; stroke:none;" d="M29 65L30 66L29 65M44 65L45 66L44 65z"/>
<path style="fill:#f0acb2; stroke:none;" d="M45 65L46 66L45 65z"/>
<path style="fill:#f0e0e3; stroke:none;" d="M46 65L47 66L46 65z"/>
<path style="fill:#f0acb2; stroke:none;" d="M48 65L49 66L48 65M53 65L54 66L53 65M88 65L89 66L88 65z"/>
<path style="fill:#f0e0e3; stroke:none;" d="M94 65L95 66L94 65z"/>
<path style="fill:#f0acb2; stroke:none;" d="M22 66L23 67L22 66z"/>
<path style="fill:#ee737d; stroke:none;" d="M40 66L41 67L40 66z"/>
<path style="fill:#f0acb2; stroke:none;" d="M41 66L42 67L41 66z"/>
<path style="fill:#f0e0e3; stroke:none;" d="M42 66L43 67L42 66z"/>
<path style="fill:#ee737d; stroke:none;" d="M49 66L50 67L49 66M53 66L54 67L53 66z"/>
<path style="fill:#f0e0e3; stroke:none;" d="M54 66L55 67L54 66z"/>
<path style="fill:#ee737d; stroke:none;" d="M89 66L90 67L89 66M94 66L95 67L94 66M37 67L38 68L37 67z"/>
<path style="fill:#f0acb2; stroke:none;" d="M38 67L39 68L38 67z"/>
<path style="fill:#f0e0e3; stroke:none;" d="M49 67L50 68L49 67z"/>
<path style="fill:#f0acb2; stroke:none;" d="M54 67L55 68L54 67z"/>
<path style="fill:#f0e0e3; stroke:none;" d="M95 67L96 68L95 67z"/>
<path style="fill:#f0acb2; stroke:none;" d="M23 68L24 69L23 68z"/>
<path style="fill:#ee737d; stroke:none;" d="M33 68L34 69L33 68z"/>
<path style="fill:#f0acb2; stroke:none;" d="M34 68L35 69L34 68z"/>
<path style="fill:#f0e0e3; stroke:none;" d="M35 68L36 69L35 68z"/>
<path style="fill:#ee737d; stroke:none;" d="M50 68L51 69L50 68z"/>
<path style="fill:#f0e0e3; stroke:none;" d="M55 68L56 69L55 68z"/>
<path style="fill:#f0acb2; stroke:none;" d="M90 68L91 69L90 68z"/>
<path style="fill:#ee737d; stroke:none;" d="M24 69L25 70L24 69M29 69L30 70L29 69z"/>
<path style="fill:#f0acb2; stroke:none;" d="M30 69L31 70L30 69z"/>
<path style="fill:#f0e0e3; stroke:none;" d="M31 69L32 70L31 69M50 69L51 70L50 69z"/>
<path style="fill:#ee737d; stroke:none;" d="M55 69L56 70L55 69M91 69L92 70L91 69M96 69L97 70L96 69z"/>
<path style="fill:#f0e0e3; stroke:none;" d="M24 70L25 71L24 70z"/>
<path style="fill:#f0acb2; stroke:none;" d="M25 70L26 71L25 70z"/>
<path style="fill:#ee737d; stroke:none;" d="M26 70L27 71L26 70z"/>
<path style="fill:#f0acb2; stroke:none;" d="M27 70L28 71L27 70z"/>
<path style="fill:#f0e0e3; stroke:none;" d="M28 70L29 71L28 70z"/>
<path style="fill:#ee737d; stroke:none;" d="M51 70L52 71L51 70z"/>
<path style="fill:#f0e0e3; stroke:none;" d="M56 70L57 71L56 70z"/>
<path style="fill:#f0acb2; stroke:none;" d="M97 70L98 71L97 70z"/>
<path style="fill:#f0e0e3; stroke:none;" d="M51 71L52 72L51 71z"/>
<path style="fill:#ee737d; stroke:none;" d="M56 71L57 72L56 71z"/>
<path style="fill:#f0acb2; stroke:none;" d="M90 71L91 72L90 71z"/>
<path style="fill:#ee737d; stroke:none;" d="M91 71L92 72L91 71M97.3333 71.6667L97.6667 72.3333L97.3333 71.6667z"/>
<path style="fill:#f0acb2; stroke:none;" d="M52 72L53 73L52 72M57 72L58 73L57 72z"/>
<path style="fill:#ee737d; stroke:none;" d="M88 72L89 73L88 72M57 73L58 74L57 73z"/>
<path style="fill:#f0e0e3; stroke:none;" d="M84 73L85 74L84 73z"/>
<path style="fill:#f0acb2; stroke:none;" d="M85 73L86 74L85 73z"/>
<path style="fill:#f0e0e3; stroke:none;" d="M97 73L98 74L97 73M53 74L54 75L53 74z"/>
<path style="fill:#f0acb2; stroke:none;" d="M58 74L59 75L58 74z"/>
<path style="fill:#f0e0e3; stroke:none;" d="M81 74L82 75L81 74z"/>
<path style="fill:#f0acb2; stroke:none;" d="M82 74L83 75L82 74z"/>
<path style="fill:#ee737d; stroke:none;" d="M83 74L84 75L83 74M94 74L95 75L94 74z"/>
<path style="fill:#f0acb2; stroke:none;" d="M95 74L96 75L95 74z"/>
<path style="fill:#ee737d; stroke:none;" d="M54 75L55 76L54 75z"/>
<path style="fill:#f0e0e3; stroke:none;" d="M79 75L80 76L79 75z"/>
<path style="fill:#ee737d; stroke:none;" d="M80 75L81 76L80 75z"/>
<path style="fill:#f0acb2; stroke:none;" d="M92 75L93 76L92 75z"/>
<path style="fill:#f0e0e3; stroke:none;" d="M93 75L94 76L93 75M54 76L55 77L54 76z"/>
<path style="fill:#ee737d; stroke:none;" d="M59 76L60 77L59 76z"/>
<path style="fill:#f0e0e3; stroke:none;" d="M76 76L77 77L76 76z"/>
<path style="fill:#f0acb2; stroke:none;" d="M77 76L78 77L77 76z"/>
<path style="fill:#ee737d; stroke:none;" d="M78 76L79 77L78 76M89 76L90 77L89 76z"/>
<path style="fill:#f0e0e3; stroke:none;" d="M90 76L91 77L90 76z"/>
<path style="fill:#ee737d; stroke:none;" d="M55 77L56 78L55 77z"/>
<path style="fill:#f0e0e3; stroke:none;" d="M60 77L61 78L60 77z"/>
<path style="fill:#f0acb2; stroke:none;" d="M74 77L75 78L74 77z"/>
<path style="fill:#ee737d; stroke:none;" d="M75 77L76 78L75 77M86 77L87 78L86 77z"/>
<path style="fill:#f0acb2; stroke:none;" d="M87 77L88 78L87 77z"/>
<path style="fill:#f0e0e3; stroke:none;" d="M55 78L56 79L55 78z"/>
<path style="fill:#ee737d; stroke:none;" d="M60 78L61 79L60 78z"/>
<path style="fill:#f0acb2; stroke:none;" d="M71 78L72 79L71 78z"/>
<path style="fill:#ee737d; stroke:none;" d="M72 78L73 79L72 78M83 78L84 79L83 78z"/>
<path style="fill:#f0acb2; stroke:none;" d="M84 78L85 79L84 78z"/>
<path style="fill:#f0e0e3; stroke:none;" d="M85 78L86 79L85 78z"/>
<path style="fill:#f0acb2; stroke:none;" d="M56 79L57 80L56 79M61 79L62 80L61 79M69 79L70 80L69 79M81 79L82 80L81 79z"/>
<path style="fill:#f0e0e3; stroke:none;" d="M82 79L83 80L82 79M56 80L57 81L56 80z"/>
<path style="fill:#f0acb2; stroke:none;" d="M66 80L67 81L66 80z"/>
<path style="fill:#ee737d; stroke:none;" d="M67 80L68 81L67 80M78 80L79 81L78 80z"/>
<path style="fill:#f0e0e3; stroke:none;" d="M79 80L80 81L79 80z"/>
<path style="fill:#f0acb2; stroke:none;" d="M57 81L58 82L57 81M62.6667 81.3333L63.3333 81.6667L62.6667 81.3333z"/>
<path style="fill:#ee737d; stroke:none;" d="M64 81L65 82L64 81M75 81L76 82L75 81z"/>
<path style="fill:#f0acb2; stroke:none;" d="M76 81L77 82L76 81z"/>
<path style="fill:#ee737d; stroke:none;" d="M58 82L59 83L58 82M72 82L73 83L72 82z"/>
<path style="fill:#f0acb2; stroke:none;" d="M73 82L74 83L73 82z"/>
<path style="fill:#f0e0e3; stroke:none;" d="M58 83L59 84L58 83z"/>
<path style="fill:#ee737d; stroke:none;" d="M70 83L71 84L70 83z"/>
<path style="fill:#f0e0e3; stroke:none;" d="M71 83L72 84L71 83z"/>
<path style="fill:#ee737d; stroke:none;" d="M59 84L60 85L59 84M67 84L68 85L67 84z"/>
<path style="fill:#f0acb2; stroke:none;" d="M68 84L69 85L68 84z"/>
<path style="fill:#f0e0e3; stroke:none;" d="M59 85L60 86L59 85z"/>
<path style="fill:#ee737d; stroke:none;" d="M64 85L65 86L64 85z"/>
<path style="fill:#f0acb2; stroke:none;" d="M65 85L66 86L65 85z"/>
<path style="fill:#f0e0e3; stroke:none;" d="M60 86L61 87L60 86z"/>
<path style="fill:#ee737d; stroke:none;" d="M61 86L62 87L61 86z"/>
<path style="fill:#f0acb2; stroke:none;" d="M62 86L63 87L62 86z"/>
<path style="fill:#f0e0e3; stroke:none;" d="M63 86L64 87L63 86z"/>
</svg>
